<mxfile host="app.diagrams.net" agent="Mozilla/5.0 (Windows NT 10.0; Win64; x64) AppleWebKit/537.36 (KHTML, like Gecko) Chrome/137.0.0.0 Safari/537.36 OPR/121.0.0.0" version="28.2.5">
  <diagram name="Página-1" id="83WzEGjuGzY-aYhOkXQs">
    <mxGraphModel dx="1176" dy="673" grid="1" gridSize="10" guides="1" tooltips="1" connect="1" arrows="1" fold="1" page="1" pageScale="1" pageWidth="827" pageHeight="1169" math="0" shadow="0">
      <root>
        <mxCell id="0" />
        <mxCell id="1" parent="0" />
        <mxCell id="DFTC694s8IBozHSPAt6--1" value="" style="ellipse;html=1;shape=startState;fillColor=#000000;strokeColor=#ff0000;" vertex="1" parent="1">
          <mxGeometry x="210" y="80" width="30" height="30" as="geometry" />
        </mxCell>
        <mxCell id="DFTC694s8IBozHSPAt6--2" value="" style="edgeStyle=orthogonalEdgeStyle;html=1;verticalAlign=bottom;endArrow=open;endSize=8;strokeColor=#ff0000;rounded=0;" edge="1" source="DFTC694s8IBozHSPAt6--1" parent="1">
          <mxGeometry relative="1" as="geometry">
            <mxPoint x="225" y="170" as="targetPoint" />
          </mxGeometry>
        </mxCell>
        <mxCell id="DFTC694s8IBozHSPAt6--3" value="Administrador" style="text;html=1;align=center;verticalAlign=middle;resizable=0;points=[];autosize=1;strokeColor=none;fillColor=none;" vertex="1" parent="1">
          <mxGeometry x="180" y="48" width="100" height="30" as="geometry" />
        </mxCell>
        <mxCell id="DFTC694s8IBozHSPAt6--4" value="Realizar o cadastro dos candidatos" style="html=1;whiteSpace=wrap;" vertex="1" parent="1">
          <mxGeometry x="170" y="170" width="110" height="50" as="geometry" />
        </mxCell>
        <mxCell id="DFTC694s8IBozHSPAt6--25" style="edgeStyle=orthogonalEdgeStyle;rounded=0;orthogonalLoop=1;jettySize=auto;html=1;entryX=0.5;entryY=0;entryDx=0;entryDy=0;" edge="1" parent="1" source="DFTC694s8IBozHSPAt6--5" target="DFTC694s8IBozHSPAt6--24">
          <mxGeometry relative="1" as="geometry" />
        </mxCell>
        <mxCell id="DFTC694s8IBozHSPAt6--5" value="Manda as informações dos candidatos para a urna" style="html=1;whiteSpace=wrap;" vertex="1" parent="1">
          <mxGeometry x="170" y="430" width="110" height="50" as="geometry" />
        </mxCell>
        <mxCell id="DFTC694s8IBozHSPAt6--7" value="Acessa o relatório de votos" style="html=1;whiteSpace=wrap;" vertex="1" parent="1">
          <mxGeometry x="340" y="535" width="110" height="50" as="geometry" />
        </mxCell>
        <mxCell id="DFTC694s8IBozHSPAt6--12" value="Condition" style="rhombus;whiteSpace=wrap;html=1;fontColor=#000000;fillColor=#ffffc0;strokeColor=#ff0000;" vertex="1" parent="1">
          <mxGeometry x="185" y="220" width="80" height="40" as="geometry" />
        </mxCell>
        <mxCell id="DFTC694s8IBozHSPAt6--13" value="Informações erradas ou faltando" style="edgeStyle=orthogonalEdgeStyle;html=1;align=left;verticalAlign=bottom;endArrow=open;endSize=8;strokeColor=#ff0000;rounded=0;" edge="1" source="DFTC694s8IBozHSPAt6--12" parent="1">
          <mxGeometry x="-1" relative="1" as="geometry">
            <mxPoint x="430" y="240" as="targetPoint" />
          </mxGeometry>
        </mxCell>
        <mxCell id="DFTC694s8IBozHSPAt6--14" value="Todas as informações estão certas" style="edgeStyle=orthogonalEdgeStyle;html=1;align=left;verticalAlign=top;endArrow=open;endSize=8;strokeColor=#ff0000;rounded=0;" edge="1" source="DFTC694s8IBozHSPAt6--12" parent="1">
          <mxGeometry x="-1" relative="1" as="geometry">
            <mxPoint x="225" y="320" as="targetPoint" />
          </mxGeometry>
        </mxCell>
        <mxCell id="DFTC694s8IBozHSPAt6--16" value="Informar o candidato e aguardar a correção" style="html=1;whiteSpace=wrap;" vertex="1" parent="1">
          <mxGeometry x="430" y="215" width="110" height="55" as="geometry" />
        </mxCell>
        <mxCell id="DFTC694s8IBozHSPAt6--20" style="edgeStyle=orthogonalEdgeStyle;rounded=0;orthogonalLoop=1;jettySize=auto;html=1;entryX=0.5;entryY=0;entryDx=0;entryDy=0;" edge="1" parent="1" source="DFTC694s8IBozHSPAt6--19" target="DFTC694s8IBozHSPAt6--5">
          <mxGeometry relative="1" as="geometry" />
        </mxCell>
        <mxCell id="DFTC694s8IBozHSPAt6--19" value="Emite um documento comprovando todos os candidatos cadastrados" style="html=1;whiteSpace=wrap;" vertex="1" parent="1">
          <mxGeometry x="165" y="320" width="120" height="60" as="geometry" />
        </mxCell>
        <mxCell id="DFTC694s8IBozHSPAt6--29" style="edgeStyle=orthogonalEdgeStyle;rounded=0;orthogonalLoop=1;jettySize=auto;html=1;entryX=0;entryY=0.5;entryDx=0;entryDy=0;" edge="1" parent="1" source="DFTC694s8IBozHSPAt6--24" target="DFTC694s8IBozHSPAt6--7">
          <mxGeometry relative="1" as="geometry" />
        </mxCell>
        <mxCell id="DFTC694s8IBozHSPAt6--24" value="Aguarda o final da eleição" style="html=1;whiteSpace=wrap;" vertex="1" parent="1">
          <mxGeometry x="170" y="534.5" width="110" height="50" as="geometry" />
        </mxCell>
        <mxCell id="DFTC694s8IBozHSPAt6--26" value="Condition" style="rhombus;whiteSpace=wrap;html=1;fontColor=#000000;fillColor=#ffffc0;strokeColor=#ff0000;" vertex="1" parent="1">
          <mxGeometry x="450" y="540" width="80" height="40" as="geometry" />
        </mxCell>
        <mxCell id="DFTC694s8IBozHSPAt6--27" value="Ausência de eleitores" style="edgeStyle=orthogonalEdgeStyle;html=1;align=left;verticalAlign=bottom;endArrow=open;endSize=8;strokeColor=#ff0000;rounded=0;" edge="1" source="DFTC694s8IBozHSPAt6--26" parent="1">
          <mxGeometry x="-1" y="42" relative="1" as="geometry">
            <mxPoint x="700" y="630" as="targetPoint" />
            <Array as="points">
              <mxPoint x="490" y="630" />
            </Array>
            <mxPoint x="-12" y="-30" as="offset" />
          </mxGeometry>
        </mxCell>
        <mxCell id="DFTC694s8IBozHSPAt6--28" value="Todos os eleitores votaram" style="edgeStyle=orthogonalEdgeStyle;html=1;align=left;verticalAlign=top;endArrow=open;endSize=8;strokeColor=#ff0000;rounded=0;" edge="1" source="DFTC694s8IBozHSPAt6--26" parent="1">
          <mxGeometry x="-1" y="-54" relative="1" as="geometry">
            <mxPoint x="640" y="500" as="targetPoint" />
            <Array as="points">
              <mxPoint x="580" y="560" />
              <mxPoint x="580" y="560" />
            </Array>
            <mxPoint x="-20" y="-4" as="offset" />
          </mxGeometry>
        </mxCell>
        <mxCell id="DFTC694s8IBozHSPAt6--30" value="Emite um documento que comprova a ausência dos eleitores" style="html=1;whiteSpace=wrap;" vertex="1" parent="1">
          <mxGeometry x="580" y="440" width="120" height="60" as="geometry" />
        </mxCell>
        <mxCell id="DFTC694s8IBozHSPAt6--33" style="edgeStyle=orthogonalEdgeStyle;rounded=0;orthogonalLoop=1;jettySize=auto;html=1;entryX=1;entryY=0.5;entryDx=0;entryDy=0;" edge="1" parent="1" source="DFTC694s8IBozHSPAt6--31" target="DFTC694s8IBozHSPAt6--35">
          <mxGeometry relative="1" as="geometry">
            <mxPoint x="712.5" y="340" as="targetPoint" />
            <Array as="points">
              <mxPoint x="710" y="315" />
            </Array>
          </mxGeometry>
        </mxCell>
        <mxCell id="DFTC694s8IBozHSPAt6--31" value="Emite um documento que comprova a votação dos eleitores" style="html=1;whiteSpace=wrap;" vertex="1" parent="1">
          <mxGeometry x="700" y="600" width="120" height="60" as="geometry" />
        </mxCell>
        <mxCell id="DFTC694s8IBozHSPAt6--32" style="edgeStyle=orthogonalEdgeStyle;rounded=0;orthogonalLoop=1;jettySize=auto;html=1;entryX=0;entryY=0.5;entryDx=0;entryDy=0;" edge="1" parent="1" source="DFTC694s8IBozHSPAt6--30" target="DFTC694s8IBozHSPAt6--35">
          <mxGeometry relative="1" as="geometry">
            <mxPoint x="643.2" y="342" as="targetPoint" />
          </mxGeometry>
        </mxCell>
        <mxCell id="DFTC694s8IBozHSPAt6--35" value="" style="ellipse;html=1;shape=endState;fillColor=#000000;strokeColor=#ff0000;" vertex="1" parent="1">
          <mxGeometry x="660" y="300" width="30" height="30" as="geometry" />
        </mxCell>
        <mxCell id="DFTC694s8IBozHSPAt6--36" value="&lt;span style=&quot;text-wrap-mode: wrap;&quot;&gt;Divulgar o resultado oficial da sessão&lt;/span&gt;" style="text;html=1;align=center;verticalAlign=middle;resizable=0;points=[];autosize=1;strokeColor=none;fillColor=none;" vertex="1" parent="1">
          <mxGeometry x="565" y="240" width="220" height="30" as="geometry" />
        </mxCell>
      </root>
    </mxGraphModel>
  </diagram>
</mxfile>
